<svg aria-hidden="true" style="position: absolute; width: 0; height: 0; overflow: hidden;" version="1.1" xmlns="http://www.w3.org/2000/svg" xmlns:xlink="http://www.w3.org/1999/xlink">
<defs>
<symbol id="icon-breasts" viewBox="0 0 32 32">
<path d="M6.815 6.547c0.329-0.165 0.73-0.031 0.894 0.298 0.196 0.391 0.322 0.84 0.262 1.324-0.061 0.491-0.305 0.936-0.701 1.332l-0.629 0.629c-0.128 0.128-0.323 0.306-0.519 0.484l-0.001 0.001c-0.064 0.059-0.129 0.117-0.191 0.175-0.273 0.25-0.509 0.474-0.636 0.623-0.639 0.746-1.065 1.669-1.224 2.655s-0.040 1.986 0.334 2.876c0.374 0.89 0.987 1.631 1.758 2.136 0.214 0.14 0.437 0.261 0.668 0.361 0.108 0.020 0.207 0.060 0.292 0.115 0.52 0.183 1.071 0.268 1.63 0.249 0.92-0.032 1.827-0.348 2.606-0.915s1.397-1.362 1.77-2.287c0.138-0.341 0.526-0.506 0.868-0.368s0.506 0.526 0.368 0.868c-0.465 1.151-1.235 2.147-2.222 2.866s-2.149 1.128-3.344 1.17c-0.417 0.015-0.831-0.016-1.236-0.089l0.579 3.675c0.052 0.327-0.231 0.628-0.63 0.672s-0.765-0.185-0.817-0.512l-0.686-4.354c-0.198-0.099-0.391-0.211-0.579-0.333-1.001-0.656-1.783-1.608-2.257-2.735s-0.618-2.378-0.422-3.604 0.726-2.376 1.527-3.311c0.189-0.221 0.487-0.499 0.748-0.738 0.077-0.070 0.151-0.138 0.22-0.201 0.187-0.17 0.345-0.314 0.449-0.418l0.629-0.629c0.233-0.233 0.304-0.417 0.321-0.555 0.018-0.145-0.012-0.325-0.131-0.562-0.165-0.329-0.031-0.73 0.298-0.894z"></path>
<path d="M25.99 20.529c0.198-0.099 0.391-0.211 0.579-0.333 1.001-0.656 1.783-1.608 2.257-2.735s0.618-2.378 0.422-3.604-0.726-2.376-1.527-3.311c-0.189-0.221-0.487-0.499-0.748-0.738-0.077-0.070-0.151-0.138-0.22-0.201-0.187-0.17-0.345-0.314-0.449-0.418l-0.629-0.629c-0.233-0.233-0.304-0.417-0.321-0.555-0.018-0.145 0.012-0.325 0.131-0.562 0.165-0.329 0.031-0.73-0.298-0.894s-0.73-0.031-0.894 0.298c-0.196 0.391-0.322 0.84-0.262 1.324 0.061 0.491 0.305 0.936 0.701 1.332l0.629 0.629c0.128 0.128 0.323 0.306 0.519 0.484 0.065 0.059 0.13 0.118 0.192 0.175 0.273 0.25 0.509 0.474 0.636 0.623 0.639 0.746 1.065 1.669 1.223 2.655s0.040 1.986-0.334 2.876c-0.374 0.89-0.987 1.631-1.758 2.136-0.214 0.14-0.437 0.261-0.668 0.361-0.108 0.020-0.207 0.060-0.292 0.115-0.52 0.183-1.071 0.268-1.63 0.249-0.921-0.032-1.827-0.348-2.606-0.915s-1.397-1.362-1.77-2.287c-0.138-0.341-0.526-0.506-0.868-0.368s-0.506 0.526-0.369 0.868c0.465 1.151 1.235 2.147 2.222 2.866s2.149 1.128 3.344 1.17c0.417 0.015 0.831-0.016 1.236-0.089l-0.579 3.675c-0.052 0.327 0.231 0.628 0.63 0.672s0.765-0.185 0.817-0.512l0.686-4.354z"></path>
<path d="M8.667 16.667c0 0.736-0.597 1.333-1.333 1.333s-1.333-0.597-1.333-1.333c0-0.736 0.597-1.333 1.333-1.333s1.333 0.597 1.333 1.333z"></path>
<path d="M24.667 18c0.736 0 1.333-0.597 1.333-1.333s-0.597-1.333-1.333-1.333c-0.736 0-1.333 0.597-1.333 1.333s0.597 1.333 1.333 1.333z"></path>
</symbol>
<symbol id="icon-calendar" viewBox="0 0 32 32">
<path d="M11.333 16.667v1.333h-1.333v-1.333h1.333zM10 15.333c-0.736 0-1.333 0.597-1.333 1.333v1.333c0 0.736 0.597 1.333 1.333 1.333h1.333c0.736 0 1.333-0.597 1.333-1.333v-1.333c0-0.736-0.597-1.333-1.333-1.333h-1.333z"></path>
<path d="M16.667 16.667v1.333h-1.333v-1.333h1.333zM15.333 15.333c-0.736 0-1.333 0.597-1.333 1.333v1.333c0 0.736 0.597 1.333 1.333 1.333h1.333c0.736 0 1.333-0.597 1.333-1.333v-1.333c0-0.736-0.597-1.333-1.333-1.333h-1.333z"></path>
<path d="M22 16.667v1.333h-1.333v-1.333h1.333zM20.667 15.333c-0.736 0-1.333 0.597-1.333 1.333v1.333c0 0.736 0.597 1.333 1.333 1.333h1.333c0.736 0 1.333-0.597 1.333-1.333v-1.333c0-0.736-0.597-1.333-1.333-1.333h-1.333z"></path>
<path d="M11.333 22v1.333h-1.333v-1.333h1.333zM10 20.667c-0.736 0-1.333 0.597-1.333 1.333v1.333c0 0.736 0.597 1.333 1.333 1.333h1.333c0.736 0 1.333-0.597 1.333-1.333v-1.333c0-0.736-0.597-1.333-1.333-1.333h-1.333z"></path>
<path d="M16.667 22v1.333h-1.333v-1.333h1.333zM15.333 20.667c-0.736 0-1.333 0.597-1.333 1.333v1.333c0 0.736 0.597 1.333 1.333 1.333h1.333c0.736 0 1.333-0.597 1.333-1.333v-1.333c0-0.736-0.597-1.333-1.333-1.333h-1.333z"></path>
<path d="M22 22v1.333h-1.333v-1.333h1.333zM20.667 20.667c-0.736 0-1.333 0.597-1.333 1.333v1.333c0 0.736 0.597 1.333 1.333 1.333h1.333c0.736 0 1.333-0.597 1.333-1.333v-1.333c0-0.736-0.597-1.333-1.333-1.333h-1.333z"></path>
<path d="M6.667 7.333c-0.368 0-0.667 0.298-0.667 0.667v18c0 0.368 0.298 0.667 0.667 0.667h18.667c0.367 0 0.667-0.299 0.667-0.668v-17.997c0-0.369-0.299-0.668-0.667-0.668h-2v-1.333h2c1.106 0 2 0.898 2 2.001v17.997c0 1.104-0.894 2.001-2 2.001h-18.667c-1.105 0-2-0.895-2-2v-18c0-1.105 0.895-2 2-2h3.333v1.333h-3.333zM20.667 7.333h-8v-1.333h8v1.333z"></path>
<path d="M26 13.333h-20v-1.333h20v1.333z"></path>
<path d="M10 4.667c0-0.368 0.298-0.667 0.667-0.667s0.667 0.298 0.667 0.667v4.667c0 0.368-0.298 0.667-0.667 0.667s-0.667-0.298-0.667-0.667v-4.667z"></path>
<path d="M20.667 4.667c0-0.368 0.298-0.667 0.667-0.667s0.667 0.298 0.667 0.667v4.667c0 0.368-0.298 0.667-0.667 0.667s-0.667-0.298-0.667-0.667v-4.667z"></path>
</symbol>
<symbol id="icon-clinical_fe" viewBox="0 0 32 32">
<path d="M7.333 20c0-0.368 0.298-0.667 0.667-0.667h9.333c0.368 0 0.667 0.298 0.667 0.667s-0.298 0.667-0.667 0.667h-9.333c-0.368 0-0.667-0.298-0.667-0.667z"></path>
<path d="M8 22.667c-0.368 0-0.667 0.298-0.667 0.667s0.298 0.667 0.667 0.667h9.333c0.368 0 0.667-0.298 0.667-0.667s-0.298-0.667-0.667-0.667h-9.333z"></path>
<path d="M9.333 14v-2h1.333v2h2v1.333h-2v2h-1.333v-2h-2v-1.333h2z"></path>
<path d="M10 4c-1.105 0-2 0.895-2 2h-2c-1.105 0-2 0.895-2 2v18c0 1.105 0.895 2 2 2h13.333c1.105 0 2-0.895 2-2v-18c0-1.105-0.895-2-2-2h-2c0-1.105-0.895-2-2-2h-5.333zM15.333 8c0.368 0 0.667-0.298 0.667-0.667v-1.333c0-0.368-0.298-0.667-0.667-0.667h-5.333c-0.368 0-0.667 0.298-0.667 0.667v1.333c0 0.368 0.298 0.667 0.667 0.667h5.333zM8 7.333c0 1.105 0.895 2 2 2h5.333c1.105 0 2-0.895 2-2h2c0.368 0 0.667 0.298 0.667 0.667v18c0 0.368-0.298 0.667-0.667 0.667h-13.333c-0.368 0-0.667-0.298-0.667-0.667v-18c0-0.368 0.298-0.667 0.667-0.667h2z"></path>
<path d="M24 11.333c0-1.105 0.895-2 2-2s2 0.895 2 2v13.535l-2 3-2-3v-13.535zM26 10.667c-0.368 0-0.667 0.298-0.667 0.667v1.333h1.333v-1.333c0-0.368-0.298-0.667-0.667-0.667zM26 25.465l0.667-1v-10.465h-1.333v10.465l0.667 1z"></path>
</symbol>
<symbol id="icon-doctor_male" viewBox="0 0 32 32">
<path d="M11.099 6.217c-0.007 0.030-0.013 0.056-0.018 0.079-1.054 0.891-1.636 1.891-1.883 2.906-0.254 1.042-0.143 2.053 0.099 2.915s0.62 1.6 0.933 2.119c0.158 0.261 0.301 0.47 0.406 0.616 0.053 0.073 0.096 0.13 0.127 0.17 0.016 0.020 0.028 0.036 0.037 0.047l0.011 0.014 0.004 0.004 0.001 0.002 0.001 0.001 0.515-0.424c-0.515 0.424-0.514 0.424-0.515 0.424l0.237 0.287 0.016-0.002c0.802 1.932 2.706 3.291 4.928 3.291 2.406 0 4.44-1.594 5.104-3.783 0.117-0.047 0.211-0.113 0.277-0.167 0.288-0.233 0.575-0.665 0.818-1.117 0.503-0.94 1.023-2.382 1.023-3.726 0-2.601-1.672-4.163-3.457-5.071-1.774-0.903-3.783-1.233-4.783-1.367-0.906-0.121-1.639-0.012-2.223 0.28-0.586 0.293-0.961 0.737-1.202 1.176-0.237 0.431-0.352 0.868-0.421 1.165-0.015 0.064-0.027 0.116-0.037 0.16zM12.219 14.642c0.142-0.26 0.285-0.623 0.424-1.134 0.080-0.294 0.149-0.7 0.217-1.113l0.025-0.152c0.063-0.386 0.131-0.797 0.213-1.206 0.093-0.464 0.2-0.903 0.331-1.273 0.040-0.112 0.080-0.213 0.12-0.302 1.825 1.118 3.375 1.601 4.52 1.794 0.63 0.106 1.133 0.124 1.488 0.114l0.027-0.001 0.028-0.001c0.029 0.079 0.061 0.171 0.092 0.278 0.143 0.479 0.296 1.25 0.296 2.354 0 0.035 0.001 0.073 0.004 0.112l-0.075-0.025c-0.353 1.849-1.978 3.246-3.929 3.246-1.751 0-3.239-1.125-3.781-2.691zM11.286 13.401c-0.252-0.437-0.526-1.007-0.705-1.644-0.199-0.71-0.272-1.48-0.087-2.24 0.18-0.74 0.616-1.518 1.511-2.255 0.161-0.109 0.235-0.256 0.254-0.296l0-0.001c0.042-0.085 0.068-0.17 0.084-0.224 0.021-0.076 0.045-0.179 0.066-0.274 0.008-0.037 0.016-0.072 0.024-0.105 0.063-0.268 0.145-0.561 0.292-0.828 0.142-0.259 0.338-0.48 0.628-0.625 0.292-0.146 0.744-0.246 1.452-0.151 0.969 0.129 2.791 0.438 4.355 1.233 1.553 0.79 2.728 1.986 2.728 3.883 0 0.874-0.294 1.866-0.647 2.65-0.067-0.511-0.162-0.928-0.261-1.259-0.090-0.303-0.183-0.532-0.257-0.691-0.037-0.080-0.069-0.142-0.095-0.187-0.013-0.023-0.023-0.041-0.032-0.056l-0.011-0.018-0.004-0.007-0.002-0.003-0.001-0.002c-0-0-0-0.001-0.561 0.361l0.56-0.361-0.246-0.382-0.451 0.091c-0.012 0.002-0.033 0.005-0.064 0.009-0.062 0.007-0.163 0.017-0.299 0.021-0.272 0.008-0.688-0.005-1.227-0.096-1.075-0.182-2.655-0.676-4.574-1.954l-0.466-0.311-0.386 0.406c-0.318 0.335-0.534 0.792-0.692 1.237-0.162 0.456-0.284 0.966-0.382 1.456-0.087 0.433-0.158 0.869-0.222 1.253l-0.025 0.15c-0.072 0.434-0.13 0.765-0.188 0.98-0.024 0.088-0.048 0.169-0.071 0.243zM20.54 13.682v0zM20.543 13.68v0zM20.542 13.681v0z"></path>
<path d="M11.943 19.237c-0.141-0.281-0.315-0.629-0.609-0.562-3.603 0.82-7.333 3.188-7.333 5.705v3.62h24v-3.62c0-1.982-2.315-3.872-5.058-4.986-0.001-0.002-0.002-0.004-0.003-0.006-0.003-0.006-0.006-0.013-0.009-0.019l-0.022 0.011c-0.729-0.294-1.488-0.533-2.241-0.705-0.335-0.076-0.682 0.385-0.834 0.674h-2.709c-0.591 0-0.893 0-1.189 0h-0.017c-0.302-0-0.604-0-1.209 0h-2.709c-0.019-0.035-0.038-0.073-0.057-0.112zM20.935 20.117c0.291 0.080 0.581 0.171 0.868 0.271 0.008 0.228-0.009 0.497-0.047 0.772-0.038 0.277-0.094 0.543-0.157 0.758-0.008 0.029-0.017 0.056-0.025 0.082h-0.908c-0.253 0-0.483 0.143-0.596 0.369l-0.667 1.333c-0.046 0.093-0.070 0.195-0.070 0.298v1.333c0 0.368 0.298 0.667 0.667 0.667h1.333v-1.333h-0.667v-0.509l0.412-0.824h1.843l0.412 0.824v0.509h-0.667v1.333h1.333c0.368 0 0.667-0.298 0.667-0.667v-1.333c0-0.103-0.024-0.206-0.070-0.298l-0.667-1.333c-0.113-0.226-0.344-0.369-0.596-0.369h-0.378c0.049-0.21 0.091-0.434 0.121-0.66 0.018-0.135 0.033-0.274 0.044-0.412 0.65 0.307 1.254 0.659 1.777 1.041 1.282 0.935 1.768 1.809 1.768 2.411v2.287h-21.333v-2.287c0-0.602 0.486-1.476 1.768-2.411 0.644-0.47 1.412-0.895 2.237-1.247 0.009 0.206 0.028 0.416 0.056 0.619 0.046 0.334 0.114 0.665 0.198 0.951l0.006 0.019c-0.559 0.355-0.931 0.979-0.931 1.69 0 1.105 0.895 2 2 2s2-0.895 2-2c0-1.025-0.771-1.87-1.765-1.986-0.010-0.030-0.020-0.062-0.030-0.096-0.063-0.214-0.119-0.48-0.157-0.758s-0.055-0.551-0.046-0.781c0.002-0.056 0.006-0.105 0.010-0.149 0.080-0.025 0.16-0.049 0.24-0.072l0.276 0.524h3.514c0.618-0 0.915-0 1.217 0 0.294 0 0.593 0 1.197 0h3.514l0.298-0.565zM10.667 24.676c0.359 0 0.667-0.294 0.667-0.676s-0.308-0.676-0.667-0.676-0.667 0.294-0.667 0.676c0 0.383 0.308 0.676 0.667 0.676z"></path>
</symbol>
<symbol id="icon-hospital" viewBox="0 0 32 32">
<path d="M13.333 13.333h-2.667v2h2.667v-2z"></path>
<path d="M10.667 16.667h2.667v2h-2.667v-2z"></path>
<path d="M13.333 20h-2.667v2h2.667v-2z"></path>
<path d="M14.667 13.333h2.667v2h-2.667v-2z"></path>
<path d="M17.333 16.667h-2.667v2h2.667v-2z"></path>
<path d="M14.667 20h2.667v2h-2.667v-2z"></path>
<path d="M21.333 13.333h-2.667v2h2.667v-2z"></path>
<path d="M18.667 16.667h2.667v2h-2.667v-2z"></path>
<path d="M21.333 20h-2.667v2h2.667v-2z"></path>
<path d="M16.667 10v-2h2v-1.333h-2v-2h-1.333v2h-2v1.333h2v2h1.333z"></path>
<path d="M11.333 4c0-0.736 0.597-1.333 1.333-1.333h6.667c0.736 0 1.333 0.597 1.333 1.333h5.333v1.333h-1.333v22.667h1.333c0.368 0 0.667 0.298 0.667 0.667s-0.298 0.667-0.667 0.667h-20c-0.368 0-0.667-0.298-0.667-0.667s0.298-0.667 0.667-0.667h1.333v-22.667h-0.667v-1.333h4.667zM11.333 7.333h-2.667v20.667h2.667v-2.667h-0.667v-1.333h10.667v1.333h-0.667v2.667h2.667v-20.667h-2.667v3.333c0 0.736-0.597 1.333-1.333 1.333h-6.667c-0.736 0-1.333-0.597-1.333-1.333v-3.333zM11.333 6v-0.667h-2.667v0.667h2.667zM12.667 4v6.667h6.667v-6.667h-6.667zM15.333 28v-2.667h-2.667v2.667h2.667zM19.333 28v-2.667h-2.667v2.667h2.667zM23.333 6v-0.667h-2.667v0.667h2.667z"></path>
</symbol>
<symbol id="icon-lungs" viewBox="0 0 32 32">
<path d="M17.333 6.667c0-0.736-0.597-1.333-1.333-1.333s-1.333 0.597-1.333 1.333v6.114l-2.943 2.943c-0.521 0.521-0.521 1.365 0 1.886s1.365 0.521 1.886 0l2.391-2.391 2.391 2.391c0.521 0.521 1.365 0.521 1.886 0s0.521-1.365 0-1.886l-2.943-2.943v-6.114z"></path>
<path d="M10.667 11.817v0.169l-0 0.014c0 0.736 0.597 1.333 1.333 1.333s1.333-0.597 1.333-1.333l0-0.183c0-2.007-1.789-3.543-3.773-3.239-1.223 0.187-2.236 1.047-2.62 2.223l-3.797 11.644c-0.8 2.454 1.373 4.847 3.892 4.287l3.686-0.819c1.523-0.338 2.607-1.687 2.61-3.247v-2c0-0.736-0.597-1.333-1.333-1.333s-1.333 0.597-1.333 1.333v2.002c-0.005 0.308-0.22 0.574-0.522 0.641l-3.686 0.819c-0.504 0.112-0.938-0.367-0.778-0.857l3.797-11.644c0.071-0.219 0.26-0.379 0.488-0.414 0.37-0.057 0.703 0.229 0.703 0.603z"></path>
<path d="M21.277 25.913c-1.523-0.338-2.607-1.687-2.61-3.247v-2c0-0.736 0.597-1.333 1.333-1.333s1.333 0.597 1.333 1.333v2c0 0.001 0 0.002 0 0.002 0.005 0.308 0.22 0.574 0.522 0.641l3.686 0.819c0.504 0.112 0.939-0.367 0.779-0.857l-3.797-11.644c-0.071-0.219-0.26-0.379-0.488-0.414-0.37-0.057-0.703 0.229-0.703 0.603v0.169l0 0.014c0 0.736-0.597 1.333-1.333 1.333s-1.333-0.597-1.333-1.333l-0-0.183c0-2.007 1.789-3.543 3.773-3.239 1.223 0.187 2.236 1.047 2.62 2.223l3.797 11.644c0.8 2.454-1.372 4.847-3.892 4.287l-3.687-0.819z"></path>
</symbol>
<symbol id="icon-mobile_clinic" viewBox="0 0 32 32">
<path d="M11.333 12v-2h1.333v2h2v1.333h-2v2h-1.333v-2h-2v-1.333h2z"></path>
<path d="M2.667 8.667c0-1.105 0.895-2 2-2h14.667c1.105 0 2 0.895 2 2v4h2.479c0.503 0 0.987 0.189 1.357 0.53l3.521 3.25c0.41 0.379 0.643 0.911 0.643 1.47v5.416h-2.084c-0.296 1.15-1.34 2-2.583 2s-2.287-0.85-2.583-2h-6.168c-0.296 1.15-1.34 2-2.583 2s-2.287-0.85-2.583-2h-0.835c-0.296 1.15-1.34 2-2.583 2s-2.287-0.85-2.583-2h-2.084v-14.667zM24.667 20c-1.243 0-2.287 0.85-2.583 2h-0.751v-3.333h6.667v3.333h-0.751c-0.296-1.15-1.34-2-2.583-2zM24.264 14.177l3.42 3.157h-6.35v-3.333h2.479c0.168 0 0.329 0.063 0.452 0.177zM4.667 8c-0.368 0-0.667 0.298-0.667 0.667v8.667h16v-8.667c0-0.368-0.298-0.667-0.667-0.667h-14.667zM13.333 20c1.243 0 2.287 0.85 2.583 2h4.084v-3.333h-16v3.333h0.751c0.296-1.15 1.34-2 2.583-2s2.287 0.85 2.583 2h0.835c0.296-1.15 1.34-2 2.583-2zM7.333 24c-0.736 0-1.333-0.597-1.333-1.333s0.597-1.333 1.333-1.333c0.736 0 1.333 0.597 1.333 1.333s-0.597 1.333-1.333 1.333zM14.667 22.667c0 0.736-0.597 1.333-1.333 1.333s-1.333-0.597-1.333-1.333c0-0.736 0.597-1.333 1.333-1.333s1.333 0.597 1.333 1.333zM24.667 24c0.736 0 1.333-0.597 1.333-1.333s-0.597-1.333-1.333-1.333c-0.736 0-1.333 0.597-1.333 1.333s0.597 1.333 1.333 1.333z"></path>
</symbol>
<symbol id="icon-neurology" viewBox="0 0 32 32">
<path d="M19.723 15.249c-0.584 0-0.755-0.12-1.079-0.348-0.105-0.074-0.225-0.159-0.381-0.254-0.179 0.171-0.262 0.327-0.335 0.466-0.11 0.208-0.2 0.378-0.566 0.504-0.651 0.289-1.199 0.737-1.582 1.293s-0.585 1.197-0.584 1.851v3.684h-5.090c-0.104-0.789-0.402-1.547-0.874-2.219s-1.104-1.239-1.851-1.661c-0.648-0.251-1.208-0.657-1.619-1.175s-0.657-1.126-0.711-1.76c-0.675-0.644-1.050-1.496-1.049-2.382-0.005-0.764 0.273-1.507 0.79-2.112-0.095-0.299-0.141-0.61-0.136-0.921-0.001-0.745 0.263-1.47 0.753-2.069l1.972-1.259c0.302-0.613 0.795-1.134 1.419-1.5s1.352-0.562 2.096-0.563c0.307 0.002 0.614 0.035 0.913 0.098 0.633-0.532 1.447-0.856 2.309-0.921l5.189 0.263c0.924 0.206 1.733 0.711 2.271 1.419h0.272l2.42 0.763c0.686 0.496 1.164 1.188 1.354 1.963 0.831 0.325 1.512 0.897 1.93 1.621s0.548 1.555 0.368 2.355c-0.18 0.8-0.66 1.519-1.359 2.038l-2.479 0.813c-0.781 0.008-1.545-0.197-2.194-0.589-0.638 0.393-1.393 0.603-2.166 0.603zM22.688 13.563c0.355 0.192 0.765 0.308 1.194 0.331l2.037-0.668c0.372-0.324 0.608-0.725 0.702-1.14 0.105-0.465 0.033-0.954-0.222-1.394-0.257-0.444-0.693-0.824-1.262-1.047l-0.645-0.252-0.165-0.672c-0.096-0.394-0.328-0.774-0.688-1.080l-1.996-0.63h-0.728l-0.4-0.526c-0.317-0.417-0.806-0.746-1.4-0.901l-4.974-0.252c-0.568 0.057-1.084 0.277-1.476 0.605l-0.498 0.418-0.636-0.135c-0.208-0.044-0.423-0.068-0.638-0.069-0.513 0.002-1.006 0.138-1.419 0.38s-0.718 0.574-0.898 0.94l-0.165 0.334-2.084 1.33c-0.228 0.334-0.34 0.705-0.339 1.071l0 0.012-0 0.012c-0.003 0.166 0.022 0.333 0.074 0.496l0.225 0.707-0.482 0.564c-0.318 0.372-0.473 0.808-0.47 1.237l0 0.005v0.005c-0.001 0.499 0.21 1.009 0.636 1.416l0.365 0.348 0.043 0.502c0.031 0.363 0.173 0.725 0.427 1.045 0.255 0.322 0.617 0.59 1.056 0.76l0.090 0.035 0.084 0.048c0.097 0.055 0.193 0.112 0.288 0.172l-0.004 0.003c1.812 1.106 2.582 2.715 2.843 3.538h0.408v-4.862l-1.469-1.306-0.997 0.997c-0.26 0.26-0.682 0.26-0.943 0s-0.26-0.682 0-0.943l1.195-1.195-0.358-1.971-1.624-0.812c-0.329-0.165-0.463-0.565-0.298-0.894s0.565-0.463 0.894-0.298l1.585 0.792 1.941-1.235-0.604-1.61c-0.129-0.345 0.045-0.729 0.39-0.858s0.729 0.045 0.858 0.39l0.649 1.73h0.718l0.343-0.686-0.544-1.268c-0.145-0.338 0.012-0.73 0.35-0.875s0.73 0.012 0.875 0.35l0.468 1.092 1.859 0.338 0.008-0.006 1.201-0.961c0.288-0.23 0.707-0.183 0.937 0.104s0.183 0.707-0.104 0.937l-0.803 0.642 0.89 1.144 0.342-0.683c0.113-0.226 0.344-0.369 0.596-0.369h1.442c0.368 0 0.667 0.298 0.667 0.667s-0.298 0.667-0.667 0.667h-1.030l-0.179 0.357 1.113 0.247c0.053 0.012 0.105 0.030 0.154 0.055l0.961 0.481c0.329 0.165 0.463 0.565 0.298 0.894s-0.565 0.463-0.894 0.298l-0.888-0.444-2.082-0.463c-0.151-0.034-0.286-0.119-0.382-0.241l-1.525-1.961-1.849-0.336c-0.027 0.022-0.056 0.042-0.086 0.060l-0.392 0.784v0.377h0.775c0.103 0 0.206 0.024 0.298 0.070l1.922 0.961c0.329 0.165 0.463 0.565 0.298 0.894s-0.565 0.463-0.894 0.298l-1.781-0.891h-0.618v1.015c0 0.368-0.298 0.667-0.667 0.667s-0.667-0.299-0.667-0.667v-2.216h-0.821l-2.101 1.337 0.359 1.976 1.991 1.769c0.142 0.127 0.224 0.308 0.224 0.498v5.162h0.958v-2.377c0-1.801 1.006-2.907 1.556-3.43 0.44-0.419 1.1-0.772 1.375-0.896 0.055-0.122 0.241-0.44 0.549-0.732s0.628-0.595 0.75-0.711c0.825 0.472 1.466 0.945 1.466 0.945s0.854-0.047 1.242-0.203c0.31-0.125 0.852-0.472 1.083-0.63l0.805 0.486z"></path>
<path d="M10 25.333h5.333v-1.333h-5.333v1.333z"></path>
<path d="M15.333 28h-5.333v-1.333h5.333v1.333z"></path>
</symbol>
<symbol id="icon-stomach" viewBox="0 0 32 32">
<path d="M14.956 5.204c0.013 0.375 0.083 0.595 0.195 0.728 0.163 0.194 0.327 0.262 0.519 0.279 0.226 0.020 0.514-0.031 0.895-0.15 0.185-0.058 0.377-0.126 0.584-0.201 0.021-0.008 0.042-0.015 0.064-0.023 0.184-0.067 0.379-0.138 0.574-0.202 0.43-0.142 0.922-0.274 1.42-0.274 3.202 0 5.101 2.5 6.352 4.731 1.536 2.74 1.471 6.161-0.165 8.843-1.076 1.764-2.452 3.292-4.537 4.103-3.025 1.176-6.362 0.721-9.113-0.637-0.613-0.303-1.332 0.163-1.332 0.755v4.178h-1.333v-4.178c0-1.701 1.868-2.636 3.256-1.95 2.494 1.232 5.438 1.602 8.039 0.59 1.711-0.666 2.89-1.928 3.882-3.555 1.385-2.271 1.44-5.177 0.14-7.496-1.235-2.203-2.794-4.050-5.188-4.050-0.28 0-0.607 0.077-1.003 0.207-0.175 0.058-0.352 0.122-0.538 0.189-0.021 0.008-0.042 0.015-0.063 0.023-0.206 0.074-0.423 0.152-0.641 0.22-0.425 0.133-0.916 0.249-1.408 0.205-0.526-0.046-1.021-0.272-1.423-0.749-0.403-0.479-0.491-1.071-0.508-1.54-0.009-0.241 0.001-0.481 0.012-0.69 0.002-0.032 0.003-0.063 0.005-0.093 0.009-0.178 0.016-0.327 0.016-0.465l1.333-0.006c0.001 0.178-0.009 0.369-0.018 0.544-0.001 0.029-0.003 0.058-0.004 0.085-0.010 0.207-0.017 0.397-0.011 0.578zM9.238 4.337c0-0.113 0.001-0.225 0.001-0.337h1.333c0 0.083-0 0.166-0 0.249-0.002 1.818-0.003 3.352 0.845 4.781 0.589 0.993 1.461 1.689 2.453 2.481 0.145 0.116 0.292 0.233 0.442 0.354 1.202 0.972 1.46 2.291 1.050 3.447-0.394 1.11-1.387 2.030-2.608 2.379-0.657 0.188-1.279 0.327-1.844 0.453-0.132 0.030-0.262 0.058-0.387 0.087-0.674 0.154-1.247 0.3-1.756 0.51-0.959 0.397-1.744 1.041-2.372 2.582-0.261 0.639-0.394 1.32-0.394 2.007v4.004h-1.333v-4.004c0-0.86 0.168-1.712 0.493-2.51 0.757-1.855 1.793-2.771 3.097-3.31 0.622-0.258 1.291-0.424 1.97-0.578 0.135-0.031 0.271-0.061 0.407-0.092 0.562-0.126 1.138-0.254 1.753-0.43 0.831-0.238 1.477-0.862 1.719-1.544 0.226-0.636 0.119-1.357-0.632-1.964-0.137-0.111-0.277-0.222-0.42-0.336-0.978-0.777-2.060-1.636-2.783-2.856-1.041-1.754-1.036-3.637-1.032-5.373z"></path>
</symbol>
<symbol id="icon-syringe" viewBox="0 0 32 32">
<path d="M4.545 8.909l4.364-4.364c0.301-0.301 0.79-0.301 1.091 0s0.301 0.79 0 1.091l-0.545 0.545 2.727 2.727 2.182-2.182c0.301-0.301 0.79-0.301 1.091 0s0.301 0.79 0 1.091l-1.091 1.091 9.273 9.273c1.118 1.118 1.406 2.753 0.864 4.137l0.772 0.772c0.404 0.404 0.537 0.975 0.4 1.49l1.782 1.782c0.301 0.301 0.301 0.79 0 1.091s-0.79 0.301-1.091 0l-1.782-1.782c-0.515 0.138-1.087 0.005-1.491-0.399l-0.772-0.772c-1.384 0.542-3.018 0.254-4.137-0.864l-9.273-9.273-1.091 1.091c-0.301 0.301-0.79 0.301-1.091 0s-0.301-0.79 0-1.091l2.182-2.182-2.727-2.727-0.546 0.546c-0.301 0.301-0.79 0.301-1.091 0s-0.301-0.79 0-1.091zM11.239 9.851l-2.727-2.727-1.387 1.387 2.727 2.727 1.387-1.387zM13.421 9.852l-3.569 3.569 2.937 2.937 3.569-3.569-2.937-2.937zM13.88 17.449l1.636 1.636 1.239-1.239c0.301-0.301 0.79-0.301 1.091 0s0.301 0.79 0 1.091l-1.239 1.239 1.091 1.091 1.239-1.239c0.301-0.301 0.79-0.301 1.091 0s0.301 0.79 0 1.091l-1.239 1.239 0.336 0.336c0.732 0.732 1.802 0.92 2.708 0.565l1.426-1.426c0.356-0.906 0.167-1.976-0.565-2.708l-5.245-5.245-3.569 3.569zM24.348 24.055c-0.006-0.007-0.012-0.014-0.018-0.021l-0.549-0.549c-0.046 0.052-0.094 0.102-0.144 0.152s-0.1 0.098-0.152 0.144l0.549 0.549c0.007 0.007 0.014 0.013 0.021 0.019 0.034-0.060 0.076-0.116 0.127-0.167s0.107-0.093 0.166-0.127z"></path>
</symbol>
<symbol id="icon-walk_supported" viewBox="0 0 32 32">
<path d="M17.562 9.983c-1.652 0-2.991-1.339-2.991-2.991s1.339-2.991 2.991-2.991c1.652 0 2.991 1.339 2.991 2.991s-1.339 2.991-2.991 2.991zM17.562 8.65c0.916 0 1.658-0.742 1.658-1.658s-0.742-1.658-1.658-1.658c-0.916 0-1.658 0.742-1.658 1.658s0.742 1.658 1.658 1.658z"></path>
<path d="M6.667 18.667c-0.736 0-1.333 0.597-1.333 1.333v8h-1.333v-8c0-1.473 1.194-2.667 2.667-2.667h4.608c-0.329-3.354 0.373-6.055 2.421-7.154 0.026-0.014 0.052-0.026 0.079-0.036l0.017-0.006c0.871-0.324 1.809-0.305 2.651 0.131 0.801 0.414 1.341 1.113 1.679 1.839 0.125 0.269 0.241 0.519 0.349 0.754 0.263 0.571 0.479 1.038 0.684 1.446 0.29 0.577 0.5 0.91 0.683 1.122 0.154 0.18 0.284 0.268 0.451 0.333 0.2 0.078 0.534 0.153 1.139 0.171 0.827 0.025 1.501 0.622 1.655 1.401h2.252c1.473 0 2.667 1.194 2.667 2.667v8h-1.333v-8c0-0.736-0.597-1.333-1.333-1.333h-2.531c-0.325 0.465-0.871 0.763-1.48 0.745-0.816-0.024-1.589-0.129-2.301-0.408-0.246-0.096-0.474-0.209-0.688-0.337h-1.417l-0.003 0.015 2.587 2.552c0.173 0.171 0.309 0.376 0.398 0.603l1.486 3.787c0.351 0.895-0.089 1.904-0.984 2.256s-1.904-0.089-2.256-0.984l-1.351-3.443-4.692-4.629c-0.050-0.049-0.097-0.102-0.14-0.156h-5.294zM13.841 18.667l3.989 3.936c0.066 0.066 0.118 0.144 0.152 0.231l1.403 3.575c0.082 0.209 0.318 0.312 0.527 0.23s0.312-0.318 0.23-0.527l-1.486-3.787c-0.021-0.053-0.052-0.101-0.093-0.141l-2.84-2.803c-0.158-0.156-0.228-0.381-0.187-0.6l0.022-0.114h-1.717zM15.814 17.333l0.31-1.619c0.053-0.278 0.277-0.493 0.557-0.534s0.556 0.099 0.688 0.349c0.268 0.511 0.535 0.944 0.839 1.298 0.362 0.421 0.775 0.73 1.299 0.935 0.516 0.202 1.121 0.295 1.856 0.317 0.225 0.007 0.412-0.17 0.419-0.394s-0.17-0.412-0.394-0.419c-0.686-0.021-1.188-0.107-1.584-0.262-0.388-0.152-0.694-0.377-0.977-0.707-0.29-0.338-0.558-0.787-0.862-1.391-0.217-0.431-0.441-0.918-0.7-1.479l-0.004-0.008c-0.108-0.235-0.223-0.483-0.347-0.749-0.253-0.543-0.616-0.976-1.083-1.218s-1-0.27-1.543-0.077c-1.267 0.71-2.014 2.639-1.678 5.902 0.002 0.017 0.005 0.036 0.011 0.056h3.194z"></path>
<path d="M12.371 20.6c-0.168-0.161-0.407-0.223-0.632-0.163s-0.402 0.232-0.468 0.455l-0.655 2.212-1.279 1.926c-0.611 0.92-0.36 2.161 0.56 2.772s2.161 0.36 2.772-0.56l1.445-2.176c0.11-0.166 0.195-0.347 0.251-0.538l0.35-1.18c0.071-0.239 0.002-0.498-0.178-0.671l-2.166-2.077zM11.865 23.578l0.373-1.258 1.083 1.039-0.234 0.79c-0.019 0.064-0.047 0.124-0.084 0.179l-1.445 2.176c-0.204 0.307-0.617 0.39-0.924 0.187s-0.39-0.617-0.187-0.924l1.334-2.009c0.037-0.055 0.065-0.116 0.084-0.179z"></path>
</symbol>
</defs>
</svg>
